<mxfile host="app.diagrams.net" modified="2024-10-17T11:37:23.551Z" agent="Mozilla/5.0 (Windows NT 10.0; Win64; x64) AppleWebKit/537.36 (KHTML, like Gecko) Chrome/129.0.0.0 Safari/537.36" version="24.6.3" etag="9G7DgjuYAyuKewv4d0q_" type="github">
  <diagram name="Страница-1" id="hPY1Ci35Pc20yl2LzPQg">
    <mxGraphModel>
      <root>
        <mxCell id="0" />
        <mxCell id="1" parent="0" />
      </root>
    </mxGraphModel>
  </diagram>
</mxfile>
